<svg xmlns="http://www.w3.org/2000/svg" viewBox="0 0 200.12 105.79"><defs><style>.cls-1{fill:#ff50cc;}</style></defs><title>Risorsa 3</title><g id="Livello_2" data-name="Livello 2"><g id="Livello_1-2" data-name="Livello 1"><path class="cls-1" d="M155.92,25.33c0,11.1-.34,22.21-.34,33.32,0,3.83-.54,8.78.95,12.32,1.41,3.37,5,5.5,8.63,5.89a19.08,19.08,0,0,0,10.54-2.37c3.24-1.64,6.62-3.8,9.85-5.4-.17,2.32-.25,4.43-.55,6.79a9.63,9.63,0,0,1-2.57,5.73,11.33,11.33,0,0,1-6.32,2.71,30.25,30.25,0,0,1-11.68-.63c-2.75-.65-6.17-1.29-8.46-3a12.12,12.12,0,0,0,3.22,10.12,13.41,13.41,0,0,0,6.05,2.89,32.1,32.1,0,0,0,22-2.6A20,20,0,0,0,194,85.79c2.78-3.58,3.71-8.26,3.95-12.79,1-17.66,1.25-35.41,1.85-53.1l.3-8.85-13.77,8s.06,32,.06,32.07c0,2.33-1.26,5-2.44,6.83a16.75,16.75,0,0,1-5,5.15c-2,1.31-6.53,3.59-9,2.55a3.76,3.76,0,0,1-2-3.1,77.54,77.54,0,0,1,0-10s.27-6.79.35-10.18c.1-4.22.11-8.44.15-12.66,0-4,.24-12.44.24-12.44s-4.95,3.06-7.24,4.52C161,22.1,155.92,24.67,155.92,25.33Z"/><path class="cls-1" d="M134.17,10.71c-.06,2.21-2.21,67.14-2.21,67.14a16.8,16.8,0,0,1-1.87,4.93l15.46-2V77.85L148.1,0,133.15,8.33A2.74,2.74,0,0,1,134.17,10.71Z"/><path class="cls-1" d="M109.18,12.58s1,.85,1.19,4.76-2.21,64.08-2.21,64.08.17,3.91-1.87,6.46l15.3-3.06,2.72-80.57Z"/><path class="cls-1" d="M99.75,48.46a23.08,23.08,0,0,0-4.18-7.8c-5.14-6.08-14-8.28-21.76-6.6C59,37.25,48.4,51.33,48.83,66.29,49.34,83.94,57,89.39,57,89.41c5.09,3.64,9.58,5.41,16.14,5A29.38,29.38,0,0,0,94,83.57c6.64-8.25,8.77-19.59,7-30A36.69,36.69,0,0,0,99.75,48.46Zm-12.2,20c-.06.52-.13,1-.22,1.56a19.33,19.33,0,0,1-3.19,8.12C81.65,81.54,78.05,83,74,83.41a9.38,9.38,0,0,1-10.17-6.52c-.65-2.28-2.28-11.72,0-19.54a19.81,19.81,0,0,1,6.25-10c3.34-2.66,8.52-3.94,12.51-2,2.65,1.31,4.09,4,4.78,6.79A30.71,30.71,0,0,1,88,60.48C87.91,63.12,87.88,65.79,87.55,68.43Z"/><path class="cls-1" d="M0,105.79S2.29,104.35,3.15,94,6.3,21.55,6.3,21.55a7.92,7.92,0,0,0-1.23-4.29l18.64-3.75s-2.46,4-2.69,7.62-3.64,70-3.64,70,18.65-1.76,27-6.1V99Z"/></g></g></svg>